<svg xmlns="http://www.w3.org/2000/svg" viewBox="-346.19 -1148.93 4302.97 1546.88" width="4303" height="1547" role="img" aria-label="Timevo">
  <title>Timevo</title>
  <defs>
    <linearGradient id="timevo-dot" x1="0" y1="0" x2="1" y2="1">
      <stop offset="0" stop-color="#4ec3ff"/>
      <stop offset="1" stop-color="#7c4dff"/>
    </linearGradient>
  </defs>
  <rect x="-346.19" y="-1148.93" width="4302.97" height="1546.88" fill="#0a0a0a"/>
  <path d="M40.52734375 -617.67578125V-727.5390625H619.62890625V-617.67578125H395.5078125V0.0H265.13671875V-617.67578125Z M687.5390625 0.0V-545.8984375H814.4921875V0.0ZM751.015625 -623.046875Q720.7421875 -623.046875 699.013671875 -643.5546875Q677.28515625 -664.0625 677.28515625 -692.3828125Q677.28515625 -721.6796875 699.013671875 -741.943359375Q720.7421875 -762.20703125 751.015625 -762.20703125Q781.77734375 -762.20703125 803.505859375 -741.943359375Q825.234375 -721.6796875 825.234375 -692.87109375Q825.234375 -664.0625 803.505859375 -643.5546875Q781.77734375 -623.046875 751.015625 -623.046875Z M909.2578125 0.0V-545.8984375H1028.3984375L1033.28125 -414.55078125H1024.00390625Q1035.72265625 -463.37890625 1060.380859375 -494.140625Q1085.0390625 -524.90234375 1117.998046875 -539.794921875Q1150.95703125 -554.6875 1187.08984375 -554.6875Q1246.171875 -554.6875 1282.548828125 -517.578125Q1318.92578125 -480.46875 1334.0625 -408.203125H1318.92578125Q1330.15625 -457.03125 1357.255859375 -489.501953125Q1384.35546875 -521.97265625 1421.708984375 -538.330078125Q1459.0625 -554.6875 1501.54296875 -554.6875Q1550.859375 -554.6875 1589.921875 -533.203125Q1628.984375 -511.71875 1651.93359375 -470.458984375Q1674.8828125 -429.19921875 1674.8828125 -368.1640625V0.0H1547.9296875V-348.6328125Q1547.9296875 -399.4140625 1520.09765625 -422.8515625Q1492.265625 -446.2890625 1453.203125 -446.2890625Q1422.9296875 -446.2890625 1400.46875 -433.10546875Q1378.0078125 -419.921875 1366.044921875 -396.728515625Q1354.08203125 -373.53515625 1354.08203125 -342.7734375V0.0H1230.05859375V-354.4921875Q1230.05859375 -395.99609375 1204.1796875 -421.142578125Q1178.30078125 -446.2890625 1137.7734375 -446.2890625Q1109.94140625 -446.2890625 1086.748046875 -433.59375Q1063.5546875 -420.8984375 1049.8828125 -395.99609375Q1036.2109375 -371.09375 1036.2109375 -334.47265625V0.0Z M2010.859375 11.23046875Q1928.33984375 11.23046875 1869.013671875 -23.4375Q1809.6875 -58.10546875 1777.705078125 -121.09375Q1745.72265625 -184.08203125 1745.72265625 -269.53125Q1745.72265625 -354.00390625 1777.216796875 -417.48046875Q1808.7109375 -480.95703125 1866.572265625 -516.845703125Q1924.43359375 -552.734375 2002.55859375 -552.734375Q2052.36328125 -552.734375 2097.529296875 -536.62109375Q2142.6953125 -520.5078125 2177.607421875 -486.81640625Q2212.51953125 -453.125 2232.294921875 -401.123046875Q2252.0703125 -349.12109375 2252.0703125 -277.34375V-237.3046875H1805.78125V-323.73046875H2189.08203125L2129.51171875 -298.33984375Q2129.51171875 -344.23828125 2115.3515625 -379.150390625Q2101.19140625 -414.0625 2073.115234375 -433.59375Q2045.0390625 -453.125 2003.046875 -453.125Q1961.0546875 -453.125 1931.7578125 -433.349609375Q1902.4609375 -413.57421875 1887.080078125 -380.615234375Q1871.69921875 -347.65625 1871.69921875 -307.12890625V-247.55859375Q1871.69921875 -195.80078125 1889.27734375 -160.15625Q1906.85546875 -124.51171875 1938.59375 -106.4453125Q1970.33203125 -88.37890625 2012.32421875 -88.37890625Q2040.15625 -88.37890625 2062.861328125 -96.435546875Q2085.56640625 -104.4921875 2102.16796875 -120.361328125Q2118.76953125 -136.23046875 2127.0703125 -159.1796875L2243.76953125 -135.25390625Q2230.5859375 -91.30859375 2198.84765625 -58.349609375Q2167.109375 -25.390625 2119.501953125 -7.080078125Q2071.89453125 11.23046875 2010.859375 11.23046875Z M2457.1875 0.0 2254.0625 -545.8984375H2389.8046875L2489.4140625 -249.0234375Q2506.9921875 -196.77734375 2519.6875 -144.04296875Q2532.3828125 -91.30859375 2545.56640625 -37.109375H2513.828125Q2527.5 -91.30859375 2539.951171875 -144.04296875Q2552.40234375 -196.77734375 2569.4921875 -249.0234375L2668.61328125 -545.8984375H2803.37890625L2599.27734375 0.0Z M3067.578125 11.23046875Q2987.98828125 11.23046875 2929.39453125 -24.169921875Q2870.80078125 -59.5703125 2838.818359375 -122.802734375Q2806.8359375 -186.03515625 2806.8359375 -270.01953125Q2806.8359375 -354.98046875 2838.818359375 -418.701171875Q2870.80078125 -482.421875 2929.39453125 -517.578125Q2987.98828125 -552.734375 3067.578125 -552.734375Q3147.65625 -552.734375 3206.25 -517.578125Q3264.84375 -482.421875 3296.826171875 -418.701171875Q3328.80859375 -354.98046875 3328.80859375 -270.01953125Q3328.80859375 -186.03515625 3296.826171875 -122.802734375Q3264.84375 -59.5703125 3206.25 -24.169921875Q3147.65625 11.23046875 3067.578125 11.23046875ZM3067.578125 -91.796875Q3112.01171875 -91.796875 3141.552734375 -115.72265625Q3171.09375 -139.6484375 3185.498046875 -180.17578125Q3199.90234375 -220.703125 3199.90234375 -270.5078125Q3199.90234375 -320.80078125 3185.498046875 -361.328125Q3171.09375 -401.85546875 3141.552734375 -425.78125Q3112.01171875 -449.70703125 3067.578125 -449.70703125Q3023.14453125 -449.70703125 2994.091796875 -425.78125Q2965.0390625 -401.85546875 2950.634765625 -361.572265625Q2936.23046875 -321.2890625 2936.23046875 -270.5078125Q2936.23046875 -220.703125 2950.634765625 -180.17578125Q2965.0390625 -139.6484375 2994.091796875 -115.72265625Q3023.14453125 -91.796875 3067.578125 -91.796875Z" fill="#ededed"/>
  <path d="M3491.4453125 8.30078125Q3458.73046875 8.30078125 3436.025390625 -14.16015625Q3413.3203125 -36.62109375 3413.3203125 -69.82421875Q3413.3203125 -102.5390625 3436.025390625 -125.0Q3458.73046875 -147.4609375 3491.4453125 -147.4609375Q3524.6484375 -147.4609375 3547.353515625 -125.0Q3570.05859375 -102.5390625 3570.05859375 -69.82421875Q3570.05859375 -36.62109375 3547.353515625 -14.16015625Q3524.6484375 8.30078125 3491.4453125 8.30078125Z" fill="url(#timevo-dot)"/>
</svg>
